<svg xmlns="http://www.w3.org/2000/svg" width="819" height="819" viewBox="0 0 819 819">
<g>
<path d="M 0.00 0.00 L 819.00 0.00 L 819.00 819.00 L 0.00 819.00 ZM 400.77 372.28 L 401.04 478.06 L 428.50 477.50 L 429.01 264.00 L 489.25 264.02 C553.34,264.04 555.89,264.20 568.87,269.05 C575.73,271.62 587.06,277.49 589.62,279.82 C590.66,280.75 593.44,283.04 595.82,284.90 C606.07,292.92 616.92,310.01 621.60,325.50 C623.98,333.37 624.33,336.26 624.39,348.50 C624.47,364.34 622.56,373.64 616.60,386.43 C609.13,402.44 593.78,418.02 577.74,425.88 C560.79,434.18 560.19,434.27 521.72,434.74 L 487.95 435.14 L 488.22 449.32 L 488.50 463.50 L 520.50 463.47 C547.07,463.45 554.01,463.14 561.37,461.67 C584.85,456.97 603.64,446.42 621.58,427.86 C641.56,407.19 651.47,383.96 652.71,354.93 C654.18,320.27 642.84,290.78 619.25,267.86 C599.99,249.15 577.09,238.50 550.67,235.94 C545.62,235.45 505.14,235.04 460.71,235.03 L 379.92 235.00 L 380.21 243.72 L 380.50 252.45 L 384.94 253.21 C390.02,254.07 395.56,258.11 398.50,263.11 C400.46,266.43 400.51,268.55 400.77,372.28 ZM 444.76 442.75 L 445.01 585.00 L 466.76 584.90 C478.72,584.85 489.62,584.49 491.00,584.11 C493.37,583.45 493.51,583.00 493.79,575.21 C494.07,567.24 494.01,567.00 491.79,566.98 C485.12,566.91 476.03,559.38 474.06,552.28 C473.35,549.74 473.01,508.92 473.01,427.75 L 473.00 307.00 L 505.75 307.03 C523.76,307.05 541.60,307.46 545.39,307.95 C558.95,309.70 571.94,319.23 577.80,331.75 C580.24,336.95 580.50,338.60 580.50,349.00 C580.50,359.63 580.28,360.94 577.63,366.34 C573.44,374.87 564.42,384.07 556.77,387.60 L 550.50 390.50 L 488.50 391.50 L 488.50 419.50 L 554.50 419.46 L 562.77 416.29 C582.90,408.58 599.29,391.99 605.98,372.55 C611.25,357.23 610.58,336.58 604.32,321.62 C596.48,302.85 582.95,290.20 562.06,282.06 L 555.50 279.50 L 500.32 279.20 L 445.13 278.91 L 444.82 289.70 C444.64,295.64 444.62,364.51 444.76,442.75 ZM 172.69 584.35 C173.50,585.17 427.58,584.76 428.40,583.94 C428.71,583.63 428.99,563.15 429.02,538.44 L 429.09 493.50 L 412.43 492.93 L 411.25 497.35 C409.75,502.95 405.71,507.77 400.54,510.12 C396.75,511.84 392.39,511.96 331.25,511.98 L 266.00 512.00 L 266.00 477.50 C266.00,457.22 265.62,443.00 265.08,443.00 C264.22,443.00 245.30,462.79 239.61,469.64 L 237.00 472.79 L 237.00 541.00 L 401.09 541.00 L 400.79 548.25 L 400.50 555.50 L 222.00 556.01 L 221.89 553.76 C221.84,552.51 221.87,537.93 221.96,521.35 C222.06,504.77 221.77,490.99 221.32,490.72 C220.87,490.45 214.43,496.77 207.00,504.76 L 193.50 519.29 L 193.00 536.47 C192.51,553.25 192.43,553.76 189.69,557.90 C186.77,562.30 178.84,566.97 174.25,566.99 C172.10,567.00 172.00,567.36 172.00,575.33 C172.00,579.92 172.31,583.98 172.69,584.35 ZM 193.00 316.62 L 193.00 364.31 L 195.13 362.40 C196.30,361.36 202.59,354.59 209.10,347.36 L 220.95 334.22 L 221.03 284.86 L 221.11 235.50 L 197.33 235.23 C184.24,235.08 173.08,235.14 172.52,235.35 C171.88,235.60 171.69,238.88 172.00,244.11 L 172.50 252.47 L 176.00 253.06 C183.15,254.25 188.69,258.61 191.45,265.23 C192.78,268.40 193.00,275.84 193.00,316.62 ZM 193.00 388.11 L 193.00 431.46 L 195.85 428.48 C197.42,426.84 209.22,413.80 222.08,399.50 C234.94,385.20 250.08,368.46 255.73,362.30 L 266.00 351.09 L 266.00 330.61 C266.00,319.34 265.66,309.92 265.25,309.68 C264.84,309.44 257.98,316.47 250.00,325.30 C242.02,334.13 225.94,351.87 214.25,364.73 ZM 193.00 454.36 L 193.00 497.44 L 200.83 488.97 C205.14,484.31 214.03,474.61 220.58,467.41 C227.14,460.22 240.04,446.18 249.25,436.22 L 266.00 418.11 L 266.00 397.05 C266.00,385.47 265.60,376.00 265.12,376.00 C264.28,376.00 258.36,382.41 225.03,419.43 C217.06,428.27 206.60,439.74 201.78,444.93 ZM 237.03 275.73 L 237.05 316.50 L 240.67 312.50 C242.66,310.30 249.19,303.23 255.18,296.79 L 266.08 285.07 L 265.92 277.29 C265.83,273.00 266.34,267.57 267.05,265.20 C268.63,259.94 273.45,255.49 279.23,253.95 C282.72,253.02 284.53,252.56 285.48,251.39 C286.50,250.12 286.50,248.02 286.50,243.61 L 286.50 235.50 L 237.00 234.97 Z" fill="rgb(1,1,1)"/>
<path d="M 172.69 584.35 C172.31,583.98 172.00,579.92 172.00,575.33 C172.00,567.36 172.10,567.00 174.25,566.99 C178.84,566.97 186.77,562.30 189.69,557.90 C192.43,553.76 192.51,553.25 193.00,536.47 L 193.50 519.29 L 207.00 504.76 C214.43,496.77 220.87,490.45 221.32,490.72 C221.77,490.99 222.06,504.77 221.96,521.35 C221.87,537.93 221.84,552.51 221.89,553.76 L 222.00 556.01 L 311.25 555.76 L 400.50 555.50 L 400.79 548.25 L 401.09 541.00 L 319.04 541.00 L 237.00 541.00 L 237.00 506.89 L 237.00 472.79 L 239.61 469.64 C245.30,462.79 264.22,443.00 265.08,443.00 C265.62,443.00 266.00,457.22 266.00,477.50 L 266.00 512.00 L 331.25 511.98 C392.39,511.96 396.75,511.84 400.54,510.12 C405.71,507.77 409.75,502.95 411.25,497.35 L 412.43 492.93 L 420.76 493.21 L 429.09 493.50 L 429.02 538.44 C428.99,563.15 428.71,583.63 428.40,583.94 C427.58,584.76 173.50,585.17 172.69,584.35 ZM 444.76 442.75 C444.62,364.51 444.64,295.64 444.82,289.70 L 445.13 278.91 L 500.32 279.20 L 555.50 279.50 L 562.06 282.06 C582.95,290.20 596.48,302.85 604.32,321.62 C610.58,336.58 611.25,357.23 605.98,372.55 C599.29,391.99 582.90,408.58 562.77,416.29 L 554.50 419.46 L 521.50 419.48 L 488.50 419.50 L 488.50 405.50 L 488.50 391.50 L 519.50 391.00 L 550.50 390.50 L 556.77 387.60 C564.42,384.07 573.44,374.87 577.63,366.34 C580.28,360.94 580.50,359.63 580.50,349.00 C580.50,338.60 580.24,336.95 577.80,331.75 C571.94,319.23 558.95,309.70 545.39,307.95 C541.60,307.46 523.76,307.05 505.75,307.03 L 473.00 307.00 L 473.01 427.75 C473.01,508.92 473.35,549.74 474.06,552.28 C476.03,559.38 485.12,566.91 491.79,566.98 C494.01,567.00 494.07,567.24 493.79,575.21 C493.51,583.00 493.37,583.45 491.00,584.11 C489.62,584.49 478.72,584.85 466.76,584.90 L 445.01 585.00 L 444.76 442.75 ZM 193.00 475.90 L 193.00 454.36 L 201.78 444.93 C206.60,439.74 217.06,428.27 225.03,419.43 C258.36,382.41 264.28,376.00 265.12,376.00 C265.60,376.00 266.00,385.47 266.00,397.05 L 266.00 418.11 L 249.25 436.22 C240.04,446.18 227.14,460.22 220.58,467.41 C214.03,474.61 205.14,484.31 200.83,488.97 L 193.00 497.44 L 193.00 475.90 ZM 400.77 372.28 C400.51,268.55 400.46,266.43 398.50,263.11 C395.56,258.11 390.02,254.07 384.94,253.21 L 380.50 252.45 L 380.21 243.72 L 379.92 235.00 L 460.71 235.03 C505.14,235.04 545.62,235.45 550.67,235.94 C577.09,238.50 599.99,249.15 619.25,267.86 C642.84,290.78 654.18,320.27 652.71,354.93 C651.47,383.96 641.56,407.19 621.58,427.86 C603.64,446.42 584.85,456.97 561.37,461.67 C554.01,463.14 547.07,463.45 520.50,463.47 L 488.50 463.50 L 488.22 449.32 L 487.95 435.14 L 521.72 434.74 C560.19,434.27 560.79,434.18 577.74,425.88 C593.78,418.02 609.13,402.44 616.60,386.43 C622.56,373.64 624.47,364.34 624.39,348.50 C624.33,336.26 623.98,333.37 621.60,325.50 C616.92,310.01 606.07,292.92 595.82,284.90 C593.44,283.04 590.66,280.75 589.62,279.82 C587.06,277.49 575.73,271.62 568.87,269.05 C555.89,264.20 553.34,264.04 489.25,264.02 L 429.01 264.00 L 428.75 370.75 L 428.50 477.50 L 414.77 477.78 L 401.04 478.06 L 400.77 372.28 ZM 193.00 409.78 L 193.00 388.11 L 214.25 364.73 C225.94,351.87 242.02,334.13 250.00,325.30 C257.98,316.47 264.84,309.44 265.25,309.68 C265.66,309.92 266.00,319.34 266.00,330.61 L 266.00 351.09 L 255.73 362.30 C250.08,368.46 234.94,385.20 222.08,399.50 C209.22,413.80 197.42,426.84 195.85,428.48 L 193.00 431.46 L 193.00 409.78 ZM 193.00 316.62 C193.00,275.84 192.78,268.40 191.45,265.23 C188.69,258.61 183.15,254.25 176.00,253.06 L 172.50 252.47 L 172.00 244.11 C171.69,238.88 171.88,235.60 172.52,235.35 C173.08,235.14 184.24,235.08 197.33,235.23 L 221.11 235.50 L 221.03 284.86 L 220.95 334.22 L 209.10 347.36 C202.59,354.59 196.30,361.36 195.13,362.40 L 193.00 364.31 L 193.00 316.62 ZM 237.03 275.73 L 237.00 234.97 L 261.75 235.23 L 286.50 235.50 L 286.50 243.39 C286.50,252.09 286.56,252.00 279.23,253.95 C273.45,255.49 268.63,259.94 267.05,265.20 C266.34,267.57 265.83,273.00 265.92,277.29 L 266.08 285.07 L 255.18 296.79 C249.19,303.23 242.66,310.30 240.67,312.50 L 237.05 316.50 L 237.03 275.73 Z" fill="rgb(254,254,253)"/>
</g>
</svg>